<?xml version="1.0" encoding="UTF-8"?>
<!DOCTYPE svg PUBLIC "-//W3C//DTD SVG 1.1//EN" "http://www.w3.org/Graphics/SVG/1.1/DTD/svg11.dtd">
<svg xmlns="http://www.w3.org/2000/svg" version="1.1" width="175px" height="50px" style="shape-rendering:geometricPrecision; text-rendering:geometricPrecision; image-rendering:optimizeQuality; fill-rule:evenodd; clip-rule:evenodd" xmlns:xlink="http://www.w3.org/1999/xlink">
<g><path style="opacity:0.998" fill="#fcfcfc" d="M 6.5,13.5 C 11.1785,13.3342 15.8452,13.5008 20.5,14C 25.7221,18.2637 25.7221,22.5971 20.5,27C 17.5184,27.498 14.5184,27.6646 11.5,27.5C 11.5,29.8333 11.5,32.1667 11.5,34.5C 9.83333,34.5 8.16667,34.5 6.5,34.5C 6.5,27.5 6.5,20.5 6.5,13.5 Z M 11.5,18.5 C 13.8333,18.5 16.1667,18.5 18.5,18.5C 18.5,19.8333 18.5,21.1667 18.5,22.5C 16.1667,22.5 13.8333,22.5 11.5,22.5C 11.5,21.1667 11.5,19.8333 11.5,18.5 Z"/></g>
<g><path style="opacity:0.986" fill="#fcfcfc" d="M 29.5,13.5 C 31.8333,13.5 34.1667,13.5 36.5,13.5C 38.5937,20.3601 41.2603,27.0268 44.5,33.5C 40.6,35.1446 37.9333,33.978 36.5,30C 34.1667,29.3333 31.8333,29.3333 29.5,30C 27.9632,31.1096 27.2965,32.6096 27.5,34.5C 25.396,34.7989 23.396,34.4656 21.5,33.5C 24.3721,26.8772 27.0387,20.2105 29.5,13.5 Z M 32.5,19.5 C 33.3913,21.2905 34.3913,23.1239 35.5,25C 33.8333,25.6667 32.1667,25.6667 30.5,25C 31.8613,23.4157 32.528,21.5824 32.5,19.5 Z"/></g>
<g><path style="opacity:0.997" fill="#fbfbfb" d="M 45.5,13.5 C 50.9586,13.1033 56.2919,13.6033 61.5,15C 64.5496,19.4153 63.8829,23.0819 59.5,26C 61.0569,28.2955 62.7236,30.4622 64.5,32.5C 67.0951,26.5502 69.5951,20.5502 72,14.5C 74.3806,13.565 76.8806,13.2317 79.5,13.5C 81.6467,20.6068 83.98,27.6068 86.5,34.5C 84.5,34.5 82.5,34.5 80.5,34.5C 80.4362,30.9376 78.6028,29.2709 75,29.5C 71.6635,29.5036 70.1635,31.1702 70.5,34.5C 66.1161,34.8256 61.7828,34.4922 57.5,33.5C 56.8149,29.3824 54.4816,27.3824 50.5,27.5C 50.5,29.8333 50.5,32.1667 50.5,34.5C 48.8333,34.5 47.1667,34.5 45.5,34.5C 45.5,27.5 45.5,20.5 45.5,13.5 Z M 50.5,18.5 C 52.8333,18.5 55.1667,18.5 57.5,18.5C 57.5,19.8333 57.5,21.1667 57.5,22.5C 55.1667,22.5 52.8333,22.5 50.5,22.5C 50.5,21.1667 50.5,19.8333 50.5,18.5 Z M 74.5,20.5 C 77.2291,22.1386 77.5624,23.8052 75.5,25.5C 74.8333,25.1667 74.1667,24.8333 73.5,24.5C 74.2458,23.2638 74.5792,21.9305 74.5,20.5 Z"/></g>
<g><path style="opacity:0.997" fill="#fafafa" d="M 96.5,13.5 C 98.288,13.2148 99.9547,13.5481 101.5,14.5C 98.2926,22.9554 94.7926,31.2887 91,39.5C 89.1862,40.7596 87.3529,40.7596 85.5,39.5C 89.5468,31.0356 93.2135,22.369 96.5,13.5 Z"/></g>
<g><path style="opacity:0.994" fill="#fafafa" d="M 103.5,13.5 C 108.959,13.1033 114.292,13.6033 119.5,15C 121.729,17.553 122.062,20.3864 120.5,23.5C 122.907,27.1582 122.407,30.4915 119,33.5C 113.884,34.4249 108.717,34.7582 103.5,34.5C 103.5,27.5 103.5,20.5 103.5,13.5 Z M 109.5,18.5 C 118.833,19.5 118.833,20.5 109.5,21.5C 109.5,20.5 109.5,19.5 109.5,18.5 Z M 109.5,25.5 C 111.527,25.3379 113.527,25.5045 115.5,26C 116.337,27.0113 116.67,28.1779 116.5,29.5C 114.167,29.5 111.833,29.5 109.5,29.5C 109.5,28.1667 109.5,26.8333 109.5,25.5 Z"/></g>
<g><path style="opacity:0.988" fill="#fbfbfb" d="M 130.5,13.5 C 141.742,12.5073 146.575,17.5073 145,28.5C 141.723,34.1088 136.89,35.9422 130.5,34C 124.532,31.4682 122.366,26.9682 124,20.5C 125.363,17.3072 127.53,14.9739 130.5,13.5 Z M 132.5,18.5 C 139.416,18.8237 141.416,21.9904 138.5,28C 131.922,30.7568 129.089,28.5901 130,21.5C 130.698,20.3094 131.531,19.3094 132.5,18.5 Z"/></g>
<g><path style="opacity:0.99" fill="#fbfbfb" d="M 145.5,13.5 C 147.527,13.3379 149.527,13.5045 151.5,14C 152.305,15.9717 153.639,17.4717 155.5,18.5C 157.509,13.8331 160.842,12.4997 165.5,14.5C 163.408,17.681 161.075,20.681 158.5,23.5C 160.833,26.8333 163.167,30.1667 165.5,33.5C 163.579,34.641 161.579,34.8077 159.5,34C 158.044,32.2552 156.711,30.4219 155.5,28.5C 153.96,30.3868 152.293,32.2201 150.5,34C 148.421,34.8077 146.421,34.641 144.5,33.5C 146.833,30.1667 149.167,26.8333 151.5,23.5C 148.966,20.4216 146.966,17.0883 145.5,13.5 Z"/></g>
</svg>
